<svg width="16" height="16" viewBox="0 0 16 16" fill="none" xmlns="http://www.w3.org/2000/svg">
<path d="M11.3938 10.28C11.3738 8.98 10.4388 7.05 7.94875 7.05C6.52375 7.05 6.32875 6.18 6.31375 5.855C6.32875 5.45 6.51375 4.51 7.92875 4.51C9.39875 4.51 9.56875 5.545 9.58375 5.865C9.59875 6.36 10.0238 6.785 10.5088 6.74C11.0088 6.73 11.4038 6.315 11.3888 5.815C11.3638 4.73 10.6438 3.195 8.83875 2.8L8.85375 1.915C8.85875 1.415 8.45875 1.005 7.95875 1H7.94875C7.45375 1 7.04875 1.4 7.04375 1.895L7.03375 2.795C5.21375 3.18 4.51375 4.735 4.50375 5.85C4.52375 7.06 5.45875 8.86 7.94875 8.86C9.35375 8.86 9.55375 9.88 9.58375 10.26C9.54375 10.505 9.31375 11.4 7.94875 11.4C6.56375 11.4 6.34375 10.47 6.30875 10.195C6.26375 9.695 5.83375 9.335 5.32375 9.375C4.82375 9.42 4.45875 9.86 4.50375 10.355C4.57875 11.21 5.22375 12.73 7.03875 13.115V14.15C7.03875 14.65 7.44375 15.055 7.94375 15.055C8.44375 15.055 8.85375 14.65 8.85375 14.15V13.115C9.51384 12.9896 10.1163 12.6558 10.5726 12.1626C11.0289 11.6694 11.315 11.0428 11.3888 10.375L11.3938 10.325V10.28Z" fill="#00D26A"/>
</svg>
